<?xml version="1.0" encoding="UTF-8"?>
<svg id="Layer_1" data-name="Layer 1" xmlns="http://www.w3.org/2000/svg" viewBox="0 0 955.71 635.46">
  <defs>
    <style>
      .cls-1, .cls-2 {
        fill: #2dabe2;
      }

      .cls-2 {
        font-family: NewRodinPro-EB-90ms-RKSJ-H, 'FOT-NewRodin Pro';
        font-size: 110.89px;
      }

      .cls-3 {
        fill: #c1c1c1;
        font-family: GShinGoPro-Light-90ms-RKSJ-H, 'G-OTF Shin Go Pro';
        font-size: 46.41px;
        font-weight: 300;
      }
    </style>
  </defs>
  <g>
    <path class="cls-1" d="M795.34,179.43c-.66-7.81-3.55-12.51-8.7-18.39l-.88-1.17c-51.1-35.08-106.23-45.78-165.16-47.31-18.43-.54-43.25-1.82-51.59-20.54-8.63-19.06.05-42.78-5.25-61.88-4.48-20.24-24.51-31.68-44.99-29.98-22.61,1.49-43.46,14.04-61.99,26.69-19.24,13.33-37.23,28.52-56.12,42.36-45.65,34.22-98.25,56.82-150.94,78.59-4.48,1.81-9.44,3.97-14.16,6.52-4,2.16-8.21,3.9-12.61,5.06-74.47,19.56-129.84,53.83-146.04,126.23-18.03,80.5,155.99,132.11,220.91,142.37,79.3,12.55,127.08-62.71,126.94-143-.06-31.88-15.66-62.12-39.15-85.88,32.93-20,70.65-32.45,108.91-37.5,49.11-3.31,99.53,1.53,146.33,17.08,48.26,16.58,93.37,40.98,143.33,52.44,0,0,14.7-9.94,11.17-51.7ZM250.84,302.5c-18.4.03-33.36-14.61-33.39-32.7-.03-18.09,14.87-32.79,33.27-32.82,18.4-.03,33.36,14.61,33.39,32.7.03,18.09-14.87,32.79-33.27,32.82Z"/>
    <path class="cls-1" d="M417.82,376.41c-3.71,30.54,4.16,62.83,24.95,85.9,10.46,11.89,23.03,21.51,34.38,32.54,19.53,18.64,38.55,39.17,65.38,44.85,21.31,4.26,49.38.73,61.9-18.95,6.85-12.12,7.06-28.46,7.32-42.47-.04-13.57-3.28-26.8-12.11-37.1-15.8-17.11-35.86-30.13-55.63-42.14-15.6-8.99-25-11.68-38.64-23.33-9.54-7.81-25.35-22.33-36.27-28.16-25.97-13.05-44.58-.14-50.69,27.02l-.58,1.84Z"/>
    <path class="cls-1" d="M901.34,273.05c-7.9,14.98-9.13,32.67-13.22,49.1-1.77,7.11-3.56,14.33-3.4,21.66.4,18.29,12.71,34.13,26.2,46.49,1.4,1.28,3.16,2.64,5.01,2.17,1.83-.46,2.74-2.47,3.39-4.24,11.55-31.3,25.49-61.72,35.92-93.4.31-.95.63-1.96.4-2.93-.43-1.83-2.5-2.68-4.29-3.24-14.62-4.59-34.12-11.63-48.91-15.62l-1.08.02Z"/>
    <path class="cls-1" d="M805.97,89.62s96.58,297.43-175.6,508.65c140.42-80.67,219.91-231.99,245.34-433.4,3.17-25.14.61-50.73-8.05-74.54-.1-.27-.2-.54-.3-.82-21.17-6.45-61.4.11-61.4.11Z"/>
    <ellipse class="cls-1" cx="250.78" cy="269.74" rx="23.36" ry="11.13" transform="translate(-64.91 80.03) rotate(-16.08)"/>
  </g>
  <g>
    <path class="cls-1" d="M795.34,179.43c-.66-7.81-3.55-12.51-8.7-18.39l-.88-1.17c-51.1-35.08-106.23-45.78-165.16-47.31-18.43-.54-43.25-1.82-51.59-20.54-8.63-19.06.05-42.78-5.25-61.88-4.48-20.24-24.51-31.68-44.99-29.98-22.61,1.49-43.46,14.04-61.99,26.69-19.24,13.33-37.23,28.52-56.12,42.36-45.65,34.22-98.25,56.82-150.94,78.59-4.48,1.81-9.44,3.97-14.16,6.52-4,2.16-8.21,3.9-12.61,5.06-74.47,19.56-129.84,53.83-146.04,126.23-18.03,80.5,155.99,132.11,220.91,142.37,79.3,12.55,127.08-62.71,126.94-143-.06-31.88-15.66-62.12-39.15-85.88,32.93-20,70.65-32.45,108.91-37.5,49.11-3.31,99.53,1.53,146.33,17.08,48.26,16.58,93.37,40.98,143.33,52.44,0,0,14.7-9.94,11.17-51.7ZM250.84,302.5c-18.4.03-33.36-14.61-33.39-32.7-.03-18.09,14.87-32.79,33.27-32.82,18.4-.03,33.36,14.61,33.39,32.7.03,18.09-14.87,32.79-33.27,32.82Z"/>
    <path class="cls-1" d="M417.82,376.41c-3.71,30.54,4.16,62.83,24.95,85.9,10.46,11.89,23.03,21.51,34.38,32.54,19.53,18.64,38.55,39.17,65.38,44.85,21.31,4.26,49.38.73,61.9-18.95,6.85-12.12,7.06-28.46,7.32-42.47-.04-13.57-3.28-26.8-12.11-37.1-15.8-17.11-35.86-30.13-55.63-42.14-15.6-8.99-25-11.68-38.64-23.33-9.54-7.81-25.35-22.33-36.27-28.16-25.97-13.05-44.58-.14-50.69,27.02l-.58,1.84Z"/>
    <path class="cls-1" d="M901.34,273.05c-7.9,14.98-9.13,32.67-13.22,49.1-1.77,7.11-3.56,14.33-3.4,21.66.4,18.29,12.71,34.13,26.2,46.49,1.4,1.28,3.16,2.64,5.01,2.17,1.83-.46,2.74-2.47,3.39-4.24,11.55-31.3,25.49-61.72,35.92-93.4.31-.95.63-1.96.4-2.93-.43-1.83-2.5-2.68-4.29-3.24-14.62-4.59-34.12-11.63-48.91-15.62l-1.08.02Z"/>
    <path class="cls-1" d="M805.97,89.62s96.58,297.43-175.6,508.65c140.42-80.67,219.91-231.99,245.34-433.4,3.17-25.14.61-50.73-8.05-74.54-.1-.27-.2-.54-.3-.82-21.17-6.45-61.4.11-61.4.11Z"/>
    <ellipse class="cls-1" cx="250.78" cy="269.74" rx="23.36" ry="11.13" transform="translate(-64.91 80.03) rotate(-16.08)"/>
  </g>
  <text class="cls-3" transform="translate(.71 626.28) scale(1.04 1)"><tspan x="0" y="0">intrastuctures</tspan></text>
  <text class="cls-2" transform="translate(0 576.8) scale(.9 1)"><tspan x="0" y="0">bluesky</tspan></text>
</svg>